<?xml version="1.0" encoding="utf-8"?>
<!-- Generator: Adobe Illustrator 22.0.1, SVG Export Plug-In . SVG Version: 6.00 Build 0)  -->
<svg version="1.1" id="Camada_1" xmlns="http://www.w3.org/2000/svg" xmlns:xlink="http://www.w3.org/1999/xlink" x="0px" y="0px"
	 viewBox="0 0 65.5 63" enable-background="new 0 0 65.5 63" xml:space="preserve">
<path d="M29.8,0v5.8C17.3,7.1,7.4,16.6,6,28.6H0v5.7h6c1.3,12,11.2,21.5,23.7,22.8V63h6v-5.8c12.5-1.3,22.4-10.8,23.7-22.8h6v-5.7
	h-6c-1.3-12-11.2-21.5-23.7-22.8V0H29.8z M32.8,11.5c11.6,0,20.8,8.9,20.8,20s-9.2,20-20.8,20S12,42.6,12,31.5S21.1,11.5,32.8,11.5z
	"/>
<text transform="matrix(1 0 0 1 16.6572 39.1689)" fill="#FF0000" font-family="'ChalkboardSE-Bold'" font-size="24px">GG</text>
</svg>
