<?xml version="1.0" encoding="utf-8"?>
<!-- Generator: Adobe Illustrator 22.0.1, SVG Export Plug-In . SVG Version: 6.00 Build 0)  -->
<svg version="1.1" id="Capa_1" xmlns="http://www.w3.org/2000/svg" xmlns:xlink="http://www.w3.org/1999/xlink" x="0px" y="0px"
	 viewBox="0 0 512 499.9" enable-background="new 0 0 512 499.9" xml:space="preserve">
<g>
	<path fill="#333333" d="M416.3,436.3c-1,20.4,14.7,37.7,35.1,38.7l12.3,0.6c20.4,1,37.7-14.7,38.7-35.1l9.6-196.6
		c1-20.4-14.7-37.7-35.1-38.7l-12.3-0.6c-20.4-1-37.7,14.7-38.7,35.1L416.3,436.3z"/>
	<path fill="#333333" d="M392.3,44.8c71.8-56.4-191.8-84.1-137.4,69.7c3.5,9.8,12.3,33.8,12.3,33.8s-1.7,1.1-4.4,3.1
		c-4.3-2.8-8.8-4.8-13.4-5.9c0.1-0.1,0.2-0.2,0.4-0.3c0,0-155.9-62.9-209.2,14.8c0,0-9.2,34.1,5.1,40.9c0,0-89.2,44.8-18.5,107.3
		c0,0-32.7,62.5,36.9,74.9c0,0-40,67.7,35.7,77.9c0,0,112,91.3,293.5-6.1l11.3-232.8C404.6,222.2,320.6,101.2,392.3,44.8z"/>
</g>
</svg>
