<?xml version="1.0" encoding="utf-8"?>
<!-- Generator: Adobe Illustrator 22.0.1, SVG Export Plug-In . SVG Version: 6.00 Build 0)  -->
<svg version="1.1" id="Capa_1" xmlns="http://www.w3.org/2000/svg" xmlns:xlink="http://www.w3.org/1999/xlink" x="0px" y="0px"
	 viewBox="0 0 496.7 512" enable-background="new 0 0 496.7 512" xml:space="preserve">
<g>
	<path fill="#333333" d="M446.2,155.5c8.4,8.4,8.4,21.9,0,30.3l-91.4,91.4c-8.4,8.4-15.1,15.3-15.1,15.5c0,0.2-36.9,69.7-91,105.2
		c-54.1,35.5-38.9,64.2-38.9,93c0,24.2-30,30.4-50.6,3.5C152,485,145,466.8,143.6,455c-4.3-35.7,19.1-59.4,27.6-72.3
		c5.8-8.7,9.2-24.9,3.1-44.9H35.7c-27.4,0-42.2-21.1-32.9-46.9L73.3,95.2c4-11.1,16.9-20.1,28.7-20.1h166.5
		c11.8,0,28.2-6.8,36.5-15.1l7.7-7.7c8.4-8.4,21.9-8.4,30.3,0L446.2,155.5z M374.3,0l-28,28l122.4,122.4l28-28L374.3,0z"/>
</g>
</svg>
